<svg width="20" height="20" viewBox="0 0 20 20" fill="none" xmlns="http://www.w3.org/2000/svg">
<path fill-rule="evenodd" clip-rule="evenodd" d="M5 7C5 4.23858 7.23858 2 10 2C12.7614 2 15 4.23858 15 7V10V13V14V17H13.7324C13.3866 16.4022 12.7403 16 12 16H10C8.89543 16 8 16.8954 8 18C8 19.1046 8.89543 20 10 20H12C12.7403 20 13.3866 19.5978 13.7324 19H15C16.1046 19 17 18.1046 17 17V14C18.6569 14 20 12.6569 20 11V9C20 7.34315 18.6569 6 17 6H16.9291C16.4439 2.60771 13.5265 0 10 0C6.47353 0 3.55612 2.60771 3.07089 6H3C1.34315 6 0 7.34315 0 9V11C0 12.6569 1.34315 14 3 14H5V10V7ZM10.8981 8.76393L10 6L9.10194 8.76393H6.19577L8.54692 10.4721L7.64886 13.2361L10 11.5279L12.3511 13.2361L11.4531 10.4721L13.8042 8.76393H10.8981Z" fill="#C6973A"/>
</svg>
